<?xml version="1.0" encoding="utf-8"?>
<!-- created with bpmn-js / http://bpmn.io -->
<!DOCTYPE svg PUBLIC "-//W3C//DTD SVG 1.1//EN" "http://www.w3.org/Graphics/SVG/1.1/DTD/svg11.dtd">
<svg xmlns="http://www.w3.org/2000/svg" xmlns:xlink="http://www.w3.org/1999/xlink" width="736" height="1562" viewBox="150 44 736 1562" version="1.1"><defs><marker id="association-end-white-black-42mvgxs0apdzm6g39c7recly7" viewBox="0 0 20 20" refX="12" refY="10" markerWidth="10" markerHeight="10" orient="auto"><path d="M 1 5 L 11 10 L 1 15" style="fill: none; stroke-width: 1.5px; stroke-linecap: round; stroke-dasharray: 10000, 1; stroke: black;"/></marker><marker id="sequenceflow-end-white-black-42mvgxs0apdzm6g39c7recly7" viewBox="0 0 20 20" refX="11" refY="10" markerWidth="10" markerHeight="10" orient="auto"><path d="M 1 5 L 11 10 L 1 15 Z" style="fill: black; stroke-width: 1px; stroke-linecap: round; stroke-dasharray: 10000, 1; stroke: black;"/></marker><marker id="messageflow-end-white-black-42mvgxs0apdzm6g39c7recly7" viewBox="0 0 20 20" refX="8.5" refY="5" markerWidth="20" markerHeight="20" orient="auto"><path d="m 1 5 l 0 -3 l 7 3 l -7 3 z" style="fill: white; stroke-width: 1px; stroke-linecap: butt; stroke-dasharray: 10000, 1; stroke: black;"/></marker><marker id="messageflow-start-white-black-42mvgxs0apdzm6g39c7recly7" viewBox="0 0 20 20" refX="6" refY="6" markerWidth="20" markerHeight="20" orient="auto"><circle cx="6" cy="6" r="3.5" style="fill: white; stroke-width: 1px; stroke-linecap: round; stroke-dasharray: 10000, 1; stroke: black;"/></marker></defs><g class="djs-group"><g class="djs-element djs-shape" data-element-id="Participant_1nn61lb" style="display: block;" transform="matrix(1 0 0 1 156 50)"><g class="djs-visual"><rect x="0" y="0" width="600" height="250" rx="0" ry="0" style="stroke: black; stroke-width: 2px; fill: white; fill-opacity: 0.95;"/><polyline points="30,0 30,250 " style="fill: none; stroke: black; stroke-width: 2px;"/><text lineHeight="1.2" class="djs-label" style="font-family: Arial, sans-serif; font-size: 12px; font-weight: normal; fill: black;" transform="matrix(-1.83697e-16 -1 1 -1.83697e-16 0 250)"><tspan x="51.28125" y="18.6">Levantamento de requisitos</tspan></text></g><rect class="djs-hit djs-hit-click-stroke" x="0" y="0" width="600" height="250" style="fill: none; stroke-opacity: 0; stroke: white; stroke-width: 15px;"/><rect class="djs-hit djs-hit-all" x="0" y="0" width="30" height="250" style="fill: none; stroke-opacity: 0; stroke: white; stroke-width: 15px;"/><rect x="-6" y="-6" width="612" height="262" class="djs-outline" style="fill: none;"/></g><g class="djs-children"><g class="djs-group"><g class="djs-element djs-connection" data-element-id="SequenceFlow_1qzgymq" style="display: block;"><g class="djs-visual"><path d="m  242,110L310,110 " style="fill: none; stroke-width: 2px; stroke: black; stroke-linejoin: round; marker-end: url('#sequenceflow-end-white-black-42mvgxs0apdzm6g39c7recly7');"/></g><polyline points="242,110 310,110 " class="djs-hit djs-hit-stroke" style="fill: none; stroke-opacity: 0; stroke: white; stroke-width: 15px;"/><rect x="236" y="104" width="80" height="12" class="djs-outline" style="fill: none;"/></g></g><g class="djs-group"><g class="djs-element djs-shape" data-element-id="Task_1i2rzks" style="display: block;" transform="matrix(1 0 0 1 310 70)"><g class="djs-visual"><rect x="0" y="0" width="100" height="80" rx="10" ry="10" style="stroke: black; stroke-width: 2px; fill: white; fill-opacity: 0.95;"/><text lineHeight="1.2" class="djs-label" style="font-family: Arial, sans-serif; font-size: 12px; font-weight: normal; fill: black;"><tspan x="30.15625" y="29.200000000000003">Coletar </tspan><tspan x="6.1484375" y="43.6">requisitos com o </tspan><tspan x="32.4921875" y="58">cliente</tspan></text><path d="m 17,15 c 0.234,-0.01 5.604,0.008 8.029,0.004 0.808,0 1.271,-0.172 1.417,-0.752 0.227,-0.898 -0.334,-1.314 -1.338,-1.316 -2.467,-0.01 -7.886,-0.004 -8.108,-0.004 -0.014,-0.079 0.016,-0.533 0,-0.61 0.195,-0.042 8.507,0.006 9.616,0.002 0.877,-0.007 1.35,-0.438 1.353,-1.208 0.003,-0.768 -0.479,-1.09 -1.35,-1.091 -2.968,-0.002 -9.619,-0.013 -9.619,-0.013 v -0.591 c 0,0 5.052,-0.016 7.225,-0.016 0.888,-0.002 1.354,-0.416 1.351,-1.193 -0.006,-0.761 -0.492,-1.196 -1.361,-1.196 -3.473,-0.005 -10.86,-0.003 -11.0829995,-0.003 -0.022,-0.047 -0.045,-0.094 -0.069,-0.139 0.3939995,-0.319 2.0409995,-1.626 2.4149995,-2.017 0.469,-0.4870005 0.519,-1.1650005 0.162,-1.6040005 -0.414,-0.511 -0.973,-0.5 -1.48,-0.236 -1.4609995,0.764 -6.5999995,3.6430005 -7.7329995,4.2710005 -0.9,0.499 -1.516,1.253 -1.882,2.19 -0.37000002,0.95 -0.17,2.01 -0.166,2.979 0.004,0.718 -0.27300002,1.345 -0.055,2.063 0.629,2.087 2.425,3.312 4.859,3.318 4.6179995,0.014 9.2379995,-0.139 13.8569995,-0.158 0.755,-0.004 1.171,-0.301 1.182,-1.033 0.012,-0.754 -0.423,-0.969 -1.183,-0.973 -1.778,-0.01 -5.824,-0.004 -6.04,-0.004 10e-4,-0.084 0.003,-0.586 10e-4,-0.67 z" style="fill: white; stroke-width: 0.5px; stroke: black;"/></g><rect class="djs-hit djs-hit-all" x="0" y="0" width="100" height="80" style="fill: none; stroke-opacity: 0; stroke: white; stroke-width: 15px;"/><rect x="-6" y="-6" width="112" height="92" class="djs-outline" style="fill: none;"/></g></g><g class="djs-group"><g class="djs-element djs-shape" data-element-id="StartEvent_01qxgel" style="display: block;" transform="matrix(1 0 0 1 206 92)"><g class="djs-visual"><circle cx="18" cy="18" r="18" style="stroke: black; stroke-width: 2px; fill: white; fill-opacity: 0.95;"/></g><rect class="djs-hit djs-hit-all" x="0" y="0" width="36" height="36" style="fill: none; stroke-opacity: 0; stroke: white; stroke-width: 15px;"/><rect x="-6" y="-6" width="48" height="48" class="djs-outline" style="fill: none;"/></g></g><g class="djs-group"><g class="djs-element djs-shape" data-element-id="DataObjectReference_16pw09y" style="display: block;" transform="matrix(1 0 0 1 512 75)"><g class="djs-visual"><path d="m 0,0 28.23529411764706,0 7.058823529411765,8.196721311475411 0,40.98360655737705 -35.294117647058826,0 0,-49.18032786885246 28.23529411764706,0 0,8.196721311475411 7.058823529411765,0" style="fill: white; stroke-width: 2px; stroke: black; fill-opacity: 0.95;"/></g><rect class="djs-hit djs-hit-all" x="0" y="0" width="36" height="50" style="fill: none; stroke-opacity: 0; stroke: white; stroke-width: 15px;"/><rect x="-6" y="-6" width="48" height="62" class="djs-outline" style="fill: none;"/></g></g><g class="djs-group"><g class="djs-element djs-shape" data-element-id="DataObjectReference_16pw09y_label" style="display: block;" transform="matrix(1 0 0 1 489 133)"><g class="djs-visual"><text lineHeight="1.2" class="djs-label" style="font-family: Arial, sans-serif; font-size: 11px; font-weight: normal; fill: black;"><tspan x="0" y="9.899999999999999">Coleta de dados</tspan></text></g><rect class="djs-hit djs-hit-all" x="0" y="0" width="81" height="14" style="fill: none; stroke-opacity: 0; stroke: white; stroke-width: 15px;"/><rect x="-6" y="-6" width="93" height="26" class="djs-outline" style="fill: none;"/></g></g></g></g><g class="djs-group"><g class="djs-element djs-shape" data-element-id="Participant_0xuswzx" style="display: block;" transform="matrix(1 0 0 1 156 970)"><g class="djs-visual"><rect x="0" y="0" width="600" height="380" rx="0" ry="0" style="stroke: black; stroke-width: 2px; fill: white; fill-opacity: 0.95;"/><polyline points="30,0 30,380 " style="fill: none; stroke: black; stroke-width: 2px;"/><text lineHeight="1.2" class="djs-label" style="font-family: Arial, sans-serif; font-size: 12px; font-weight: normal; fill: black;" transform="matrix(-1.83697e-16 -1 1 -1.83697e-16 0 380)"><tspan x="175.4921875" y="18.6">Teste</tspan></text></g><rect class="djs-hit djs-hit-click-stroke" x="0" y="0" width="600" height="380" style="fill: none; stroke-opacity: 0; stroke: white; stroke-width: 15px;"/><rect class="djs-hit djs-hit-all" x="0" y="0" width="30" height="380" style="fill: none; stroke-opacity: 0; stroke: white; stroke-width: 15px;"/><rect x="-6" y="-6" width="612" height="392" class="djs-outline" style="fill: none;"/></g><g class="djs-children"><g class="djs-group"><g class="djs-element djs-connection" data-element-id="SequenceFlow_1dtu6kn" style="display: block;"><g class="djs-visual"><path d="m  470,1090L470,1120 " style="fill: none; stroke-width: 2px; stroke: black; stroke-linejoin: round; marker-end: url('#sequenceflow-end-white-black-42mvgxs0apdzm6g39c7recly7');"/></g><polyline points="470,1090 470,1120 " class="djs-hit djs-hit-stroke" style="fill: none; stroke-opacity: 0; stroke: white; stroke-width: 15px;"/><rect x="464" y="1084" width="12" height="42" class="djs-outline" style="fill: none;"/></g></g><g class="djs-group"><g class="djs-element djs-connection" data-element-id="SequenceFlow_0doibec" style="display: block;"><g class="djs-visual"><path d="m  620,1135L620,1070 " style="fill: none; stroke-width: 2px; stroke: black; stroke-linejoin: round; marker-end: url('#sequenceflow-end-white-black-42mvgxs0apdzm6g39c7recly7');"/></g><polyline points="620,1135 620,1070 " class="djs-hit djs-hit-stroke" style="fill: none; stroke-opacity: 0; stroke: white; stroke-width: 15px;"/><rect x="614" y="1064" width="12" height="77" class="djs-outline" style="fill: none;"/></g></g><g class="djs-group"><g class="djs-element djs-connection" data-element-id="SequenceFlow_0jp4gc7" style="display: block;"><g class="djs-visual"><path d="m  520,1160L595,1160 " style="fill: none; stroke-width: 2px; stroke: black; stroke-linejoin: round; marker-end: url('#sequenceflow-end-white-black-42mvgxs0apdzm6g39c7recly7');"/></g><polyline points="520,1160 595,1160 " class="djs-hit djs-hit-stroke" style="fill: none; stroke-opacity: 0; stroke: white; stroke-width: 15px;"/><rect x="514" y="1154" width="87" height="12" class="djs-outline" style="fill: none;"/></g></g><g class="djs-group"><g class="djs-element djs-connection" data-element-id="SequenceFlow_13qo85r" style="display: block;"><g class="djs-visual"><path d="m  620,1185L620,1270 L520,1270 " style="fill: none; stroke-width: 2px; stroke: black; stroke-linejoin: round; marker-end: url('#sequenceflow-end-white-black-42mvgxs0apdzm6g39c7recly7');"/></g><polyline points="620,1185 620,1270 520,1270 " class="djs-hit djs-hit-stroke" style="fill: none; stroke-opacity: 0; stroke: white; stroke-width: 15px;"/><rect x="514" y="1179" width="112" height="97" class="djs-outline" style="fill: none;"/></g></g><g class="djs-group"><g class="djs-element djs-shape" data-element-id="Task_16w4sbo" style="display: block;" transform="matrix(1 0 0 1 420 1010)"><g class="djs-visual"><rect x="0" y="0" width="100" height="80" rx="10" ry="10" style="stroke: black; stroke-width: 2px; fill: white; fill-opacity: 0.95;"/><text lineHeight="1.2" class="djs-label" style="font-family: Arial, sans-serif; font-size: 12px; font-weight: normal; fill: black;"><tspan x="33.15625" y="36.4">Testar </tspan><tspan x="8.796875" y="50.8">funcionalidades</tspan></text><path d="m 15,12 c 0.909,-0.845 1.594,-2.049 1.594,-3.385 0,-2.554 -1.805,-4.62199999 -4.357,-4.62199999 -2.55199998,0 -4.28799998,2.06799999 -4.28799998,4.62199999 0,1.348 0.974,2.562 1.89599998,3.405 -0.52899998,0.187 -5.669,2.097 -5.794,4.7560005 v 6.718 h 17 v -6.718 c 0,-2.2980005 -5.5279996,-4.5950005 -6.0509996,-4.7760005 zm -8,6 l 0,5.5 m 11,0 l 0,-5" style="fill: white; stroke-width: 0.5px; stroke: black;"/><path d="m 15,12 m 2.162,1.009 c 0,2.4470005 -2.158,4.4310005 -4.821,4.4310005 -2.66499998,0 -4.822,-1.981 -4.822,-4.4310005 " style="fill: white; stroke-width: 0.5px; stroke: black;"/><path d="m 15,12 m -6.9,-3.80 c 0,0 2.25099998,-2.358 4.27399998,-1.177 2.024,1.181 4.221,1.537 4.124,0.965 -0.098,-0.57 -0.117,-3.79099999 -4.191,-4.13599999 -3.57499998,0.001 -4.20799998,3.36699999 -4.20699998,4.34799999 z" style="fill: black; stroke-width: 0.5px; stroke: black;"/></g><rect class="djs-hit djs-hit-all" x="0" y="0" width="100" height="80" style="fill: none; stroke-opacity: 0; stroke: white; stroke-width: 15px;"/><rect x="-6" y="-6" width="112" height="92" class="djs-outline" style="fill: none;"/></g></g><g class="djs-group"><g class="djs-element djs-shape" data-element-id="DataStoreReference_05ej97o" style="display: block;" transform="matrix(1 0 0 1 265 1035)"><g class="djs-visual"><path d="m  0,6.65 l  0,36.885245901639344 c  1.639344262295082,8.196721311475411 47.540983606557376,8.196721311475411  49.18032786885246,0 l  0,-36.885245901639344 c -1.639344262295082,-8.196721311475411 -47.540983606557376,-8.196721311475411 -49.18032786885246,0c  1.639344262295082,8.196721311475411 47.540983606557376,8.196721311475411  49.18032786885246,0 m  -49.18032786885246,5.737704918032787c  1.639344262295082,8.196721311475411 47.540983606557376,8.196721311475411 49.18032786885246,0m  -49.18032786885246,5.737704918032787c  1.639344262295082,8.196721311475411 47.540983606557376,8.196721311475411  49.18032786885246,0" style="fill: white; stroke-width: 2px; stroke: black; fill-opacity: 0.95;"/></g><rect class="djs-hit djs-hit-all" x="0" y="0" width="50" height="50" style="fill: none; stroke-opacity: 0; stroke: white; stroke-width: 15px;"/><rect x="-6" y="-6" width="62" height="62" class="djs-outline" style="fill: none;"/></g></g><g class="djs-group"><g class="djs-element djs-shape" data-element-id="DataStoreReference_05ej97o_label" style="display: block;" transform="matrix(1 0 0 1 250 1092)"><g class="djs-visual"><text lineHeight="1.2" class="djs-label" style="font-family: Arial, sans-serif; font-size: 11px; font-weight: normal; fill: black;"><tspan x="0" y="9.899999999999999">Armazenamento </tspan><tspan x="14.5390625" y="23.099999999999998">dos testes</tspan></text></g><rect class="djs-hit djs-hit-all" x="0" y="0" width="80" height="27" style="fill: none; stroke-opacity: 0; stroke: white; stroke-width: 15px;"/><rect x="-6" y="-6" width="92" height="39" class="djs-outline" style="fill: none;"/></g></g><g class="djs-group"><g class="djs-element djs-shape" data-element-id="Task_0p99mrv" style="display: block;" transform="matrix(1 0 0 1 420 1230)"><g class="djs-visual"><rect x="0" y="0" width="100" height="80" rx="10" ry="10" style="stroke: black; stroke-width: 2px; fill: white; fill-opacity: 0.95;"/><text lineHeight="1.2" class="djs-label" style="font-family: Arial, sans-serif; font-size: 12px; font-weight: normal; fill: black;"><tspan x="15.4765625" y="43.599999999999994">Revisão final</tspan></text></g><rect class="djs-hit djs-hit-all" x="0" y="0" width="100" height="80" style="fill: none; stroke-opacity: 0; stroke: white; stroke-width: 15px;"/><rect x="-6" y="-6" width="112" height="92" class="djs-outline" style="fill: none;"/></g></g><g class="djs-group"><g class="djs-element djs-shape" data-element-id="Task_0l8fesc" style="display: block;" transform="matrix(1 0 0 1 420 1120)"><g class="djs-visual"><rect x="0" y="0" width="100" height="80" rx="10" ry="10" style="stroke: black; stroke-width: 2px; fill: white; fill-opacity: 0.95;"/><text lineHeight="1.2" class="djs-label" style="font-family: Arial, sans-serif; font-size: 12px; font-weight: normal; fill: black;"><tspan x="7.8125" y="36.4">Montar relatório </tspan><tspan x="31.3203125" y="50.8">técnico</tspan></text><path d="m 5.984999999999999,4.997999999999999 l 0,14 l 21,0 l 0,-14 z l 10.5,6 l 10.5,-6" style="fill: black; stroke-width: 1px; stroke: white;"/></g><rect class="djs-hit djs-hit-all" x="0" y="0" width="100" height="80" style="fill: none; stroke-opacity: 0; stroke: white; stroke-width: 15px;"/><rect x="-6" y="-6" width="112" height="92" class="djs-outline" style="fill: none;"/></g></g><g class="djs-group"><g class="djs-element djs-shape" data-element-id="Task_0u7334b" style="display: block;" transform="matrix(1 0 0 1 570 990)"><g class="djs-visual"><rect x="0" y="0" width="100" height="80" rx="10" ry="10" style="stroke: black; stroke-width: 2px; fill: white; fill-opacity: 0.95;"/><text lineHeight="1.2" class="djs-label" style="font-family: Arial, sans-serif; font-size: 12px; font-weight: normal; fill: black;"><tspan x="29.15625" y="36.4">Revisar </tspan><tspan x="8.796875" y="50.8">funcionalidades</tspan></text><path d="m 6.3,5.6000000000000005 l 0,12.6 l 18.900000000000002,0 l 0,-12.6 z l 9.450000000000001,5.4 l 9.450000000000001,-5.4" style="fill: white; stroke-width: 1px; stroke: black;"/></g><rect class="djs-hit djs-hit-all" x="0" y="0" width="100" height="80" style="fill: none; stroke-opacity: 0; stroke: white; stroke-width: 15px;"/><rect x="-6" y="-6" width="112" height="92" class="djs-outline" style="fill: none;"/></g></g><g class="djs-group"><g class="djs-element djs-shape" data-element-id="ExclusiveGateway_1unvqfr" style="display: block;" transform="matrix(1 0 0 1 595 1135)"><g class="djs-visual"><polygon points="25,0 50,25 25,50 0,25" style="stroke: black; stroke-width: 2px; fill: white; fill-opacity: 0.95;"/><path d="m 23,10 0,12.5 -12.5,0 0,5 12.5,0 0,12.5 5,0 0,-12.5 12.5,0 0,-5 -12.5,0 0,-12.5 -5,0 z" style="fill: black; stroke-width: 1px; stroke: black;"/></g><rect class="djs-hit djs-hit-all" x="0" y="0" width="50" height="50" style="fill: none; stroke-opacity: 0; stroke: white; stroke-width: 15px;"/><rect x="-6" y="-6" width="62" height="62" class="djs-outline" style="fill: none;"/></g></g><g class="djs-group"><g class="djs-element djs-shape" data-element-id="ExclusiveGateway_1unvqfr_label" style="display: block;" transform="matrix(1 0 0 1 660 1150)"><g class="djs-visual"><text lineHeight="1.2" class="djs-label" style="font-family: Arial, sans-serif; font-size: 11px; font-weight: normal; fill: black;"><tspan x="0" y="9.899999999999999">Funcionalidades </tspan><tspan x="19.8203125" y="23.099999999999998">aceitas?</tspan></text></g><rect class="djs-hit djs-hit-all" x="0" y="0" width="81" height="27" style="fill: none; stroke-opacity: 0; stroke: white; stroke-width: 15px;"/><rect x="-6" y="-6" width="93" height="39" class="djs-outline" style="fill: none;"/></g></g><g class="djs-group"><g class="djs-element djs-shape" data-element-id="SequenceFlow_13qo85r_label" style="display: block;" transform="matrix(1 0 0 1 630 1214)"><g class="djs-visual"><text lineHeight="1.2" class="djs-label" style="font-family: Arial, sans-serif; font-size: 11px; font-weight: normal; fill: black;"><tspan x="0" y="9.899999999999999">Sim</tspan></text></g><rect class="djs-hit djs-hit-all" x="0" y="0" width="19" height="14" style="fill: none; stroke-opacity: 0; stroke: white; stroke-width: 15px;"/><rect x="-6" y="-6" width="31" height="26" class="djs-outline" style="fill: none;"/></g></g><g class="djs-group"><g class="djs-element djs-shape" data-element-id="SequenceFlow_0doibec_label" style="display: block;" transform="matrix(1 0 0 1 625 1100)"><g class="djs-visual"><text lineHeight="1.2" class="djs-label" style="font-family: Arial, sans-serif; font-size: 11px; font-weight: normal; fill: black;"><tspan x="0" y="9.899999999999999">Não</tspan></text></g><rect class="djs-hit djs-hit-all" x="0" y="0" width="21" height="14" style="fill: none; stroke-opacity: 0; stroke: white; stroke-width: 15px;"/><rect x="-6" y="-6" width="33" height="26" class="djs-outline" style="fill: none;"/></g></g></g></g><g class="djs-group"><g class="djs-element djs-shape" data-element-id="Participant_1sumo9h" style="display: block;" transform="matrix(1 0 0 1 156 300)"><g class="djs-visual"><rect x="0" y="0" width="724" height="420" rx="0" ry="0" style="stroke: black; stroke-width: 2px; fill: white; fill-opacity: 0.95;"/><polyline points="30,0 30,420 " style="fill: none; stroke: black; stroke-width: 2px;"/><text lineHeight="1.2" class="djs-label" style="font-family: Arial, sans-serif; font-size: 12px; font-weight: normal; fill: black;" transform="matrix(-1.83697e-16 -1 1 -1.83697e-16 0 420)"><tspan x="169.4765625" y="18.6">Documentação</tspan></text></g><rect class="djs-hit djs-hit-click-stroke" x="0" y="0" width="724" height="420" style="fill: none; stroke-opacity: 0; stroke: white; stroke-width: 15px;"/><rect class="djs-hit djs-hit-all" x="0" y="0" width="30" height="420" style="fill: none; stroke-opacity: 0; stroke: white; stroke-width: 15px;"/><rect x="-6" y="-6" width="736" height="432" class="djs-outline" style="fill: none;"/></g><g class="djs-children"><g class="djs-group"><g class="djs-element djs-connection" data-element-id="SequenceFlow_0l4g8po" style="display: block;"><g class="djs-visual"><path d="m  385,490L550,490 L550,440 " style="fill: none; stroke-width: 2px; stroke: black; stroke-linejoin: round; marker-end: url('#sequenceflow-end-white-black-42mvgxs0apdzm6g39c7recly7');"/></g><polyline points="385,490 550,490 550,440 " class="djs-hit djs-hit-stroke" style="fill: none; stroke-opacity: 0; stroke: white; stroke-width: 15px;"/><rect x="379" y="434" width="177" height="62" class="djs-outline" style="fill: none;"/></g></g><g class="djs-group"><g class="djs-element djs-connection" data-element-id="SequenceFlow_1q2nbar" style="display: block;"><g class="djs-visual"><path d="m  360,515L360,620 L420,620 " style="fill: none; stroke-width: 2px; stroke: black; stroke-linejoin: round; marker-end: url('#sequenceflow-end-white-black-42mvgxs0apdzm6g39c7recly7');"/></g><polyline points="360,515 360,620 420,620 " class="djs-hit djs-hit-stroke" style="fill: none; stroke-opacity: 0; stroke: white; stroke-width: 15px;"/><rect x="354" y="509" width="72" height="117" class="djs-outline" style="fill: none;"/></g></g><g class="djs-group"><g class="djs-element djs-connection" data-element-id="SequenceFlow_1bejo8z" style="display: block;"><g class="djs-visual"><path d="m  360,440L360,465 " style="fill: none; stroke-width: 2px; stroke: black; stroke-linejoin: round; marker-end: url('#sequenceflow-end-white-black-42mvgxs0apdzm6g39c7recly7');"/></g><polyline points="360,440 360,465 " class="djs-hit djs-hit-stroke" style="fill: none; stroke-opacity: 0; stroke: white; stroke-width: 15px;"/><rect x="354" y="434" width="12" height="37" class="djs-outline" style="fill: none;"/></g></g><g class="djs-group"><g class="djs-element djs-connection" data-element-id="SequenceFlow_1uoth0u" style="display: block;"><g class="djs-visual"><path d="m  500,400L410,400 " style="fill: none; stroke-width: 2px; stroke: black; stroke-linejoin: round; marker-end: url('#sequenceflow-end-white-black-42mvgxs0apdzm6g39c7recly7');"/></g><polyline points="500,400 410,400 " class="djs-hit djs-hit-stroke" style="fill: none; stroke-opacity: 0; stroke: white; stroke-width: 15px;"/><rect x="404" y="394" width="102" height="12" class="djs-outline" style="fill: none;"/></g></g><g class="djs-group"><g class="djs-element djs-shape" data-element-id="Task_1xx6mhr" style="display: block;" transform="matrix(1 0 0 1 420 580)"><g class="djs-visual"><rect x="0" y="0" width="100" height="80" rx="10" ry="10" style="stroke: black; stroke-width: 2px; fill: white; fill-opacity: 0.95;"/><text lineHeight="1.2" class="djs-label" style="font-family: Arial, sans-serif; font-size: 12px; font-weight: normal; fill: black;"><tspan x="16.8125" y="36.4">Documentar </tspan><tspan x="24.3203125" y="50.8">requisitos</tspan></text><path d="m 15,12 c 0.909,-0.845 1.594,-2.049 1.594,-3.385 0,-2.554 -1.805,-4.62199999 -4.357,-4.62199999 -2.55199998,0 -4.28799998,2.06799999 -4.28799998,4.62199999 0,1.348 0.974,2.562 1.89599998,3.405 -0.52899998,0.187 -5.669,2.097 -5.794,4.7560005 v 6.718 h 17 v -6.718 c 0,-2.2980005 -5.5279996,-4.5950005 -6.0509996,-4.7760005 zm -8,6 l 0,5.5 m 11,0 l 0,-5" style="fill: white; stroke-width: 0.5px; stroke: black;"/><path d="m 15,12 m 2.162,1.009 c 0,2.4470005 -2.158,4.4310005 -4.821,4.4310005 -2.66499998,0 -4.822,-1.981 -4.822,-4.4310005 " style="fill: white; stroke-width: 0.5px; stroke: black;"/><path d="m 15,12 m -6.9,-3.80 c 0,0 2.25099998,-2.358 4.27399998,-1.177 2.024,1.181 4.221,1.537 4.124,0.965 -0.098,-0.57 -0.117,-3.79099999 -4.191,-4.13599999 -3.57499998,0.001 -4.20799998,3.36699999 -4.20699998,4.34799999 z" style="fill: black; stroke-width: 0.5px; stroke: black;"/></g><rect class="djs-hit djs-hit-all" x="0" y="0" width="100" height="80" style="fill: none; stroke-opacity: 0; stroke: white; stroke-width: 15px;"/><rect x="-6" y="-6" width="112" height="92" class="djs-outline" style="fill: none;"/></g></g><g class="djs-group"><g class="djs-element djs-shape" data-element-id="Task_1u1ay75" style="display: block;" transform="matrix(1 0 0 1 500 360)"><g class="djs-visual"><rect x="0" y="0" width="100" height="80" rx="10" ry="10" style="stroke: black; stroke-width: 2px; fill: white; fill-opacity: 0.95;"/><text lineHeight="1.2" class="djs-label" style="font-family: Arial, sans-serif; font-size: 12px; font-weight: normal; fill: black;"><tspan x="29.15625" y="36.4">Revisar </tspan><tspan x="24.3203125" y="50.8">requisitos</tspan></text><path d="m 17,15 c 0.234,-0.01 5.604,0.008 8.029,0.004 0.808,0 1.271,-0.172 1.417,-0.752 0.227,-0.898 -0.334,-1.314 -1.338,-1.316 -2.467,-0.01 -7.886,-0.004 -8.108,-0.004 -0.014,-0.079 0.016,-0.533 0,-0.61 0.195,-0.042 8.507,0.006 9.616,0.002 0.877,-0.007 1.35,-0.438 1.353,-1.208 0.003,-0.768 -0.479,-1.09 -1.35,-1.091 -2.968,-0.002 -9.619,-0.013 -9.619,-0.013 v -0.591 c 0,0 5.052,-0.016 7.225,-0.016 0.888,-0.002 1.354,-0.416 1.351,-1.193 -0.006,-0.761 -0.492,-1.196 -1.361,-1.196 -3.473,-0.005 -10.86,-0.003 -11.0829995,-0.003 -0.022,-0.047 -0.045,-0.094 -0.069,-0.139 0.3939995,-0.319 2.0409995,-1.626 2.4149995,-2.017 0.469,-0.4870005 0.519,-1.1650005 0.162,-1.6040005 -0.414,-0.511 -0.973,-0.5 -1.48,-0.236 -1.4609995,0.764 -6.5999995,3.6430005 -7.7329995,4.2710005 -0.9,0.499 -1.516,1.253 -1.882,2.19 -0.37000002,0.95 -0.17,2.01 -0.166,2.979 0.004,0.718 -0.27300002,1.345 -0.055,2.063 0.629,2.087 2.425,3.312 4.859,3.318 4.6179995,0.014 9.2379995,-0.139 13.8569995,-0.158 0.755,-0.004 1.171,-0.301 1.182,-1.033 0.012,-0.754 -0.423,-0.969 -1.183,-0.973 -1.778,-0.01 -5.824,-0.004 -6.04,-0.004 10e-4,-0.084 0.003,-0.586 10e-4,-0.67 z" style="fill: white; stroke-width: 0.5px; stroke: black;"/></g><rect class="djs-hit djs-hit-all" x="0" y="0" width="100" height="80" style="fill: none; stroke-opacity: 0; stroke: white; stroke-width: 15px;"/><rect x="-6" y="-6" width="112" height="92" class="djs-outline" style="fill: none;"/></g></g><g class="djs-group"><g class="djs-element djs-shape" data-element-id="DataObjectReference_189m1ft" style="display: block;" transform="matrix(1 0 0 1 672 505)"><g class="djs-visual"><path d="m 0,0 28.23529411764706,0 7.058823529411765,8.196721311475411 0,40.98360655737705 -35.294117647058826,0 0,-49.18032786885246 28.23529411764706,0 0,8.196721311475411 7.058823529411765,0" style="fill: white; stroke-width: 2px; stroke: black; fill-opacity: 0.95;"/></g><rect class="djs-hit djs-hit-all" x="0" y="0" width="36" height="50" style="fill: none; stroke-opacity: 0; stroke: white; stroke-width: 15px;"/><rect x="-6" y="-6" width="48" height="62" class="djs-outline" style="fill: none;"/></g></g><g class="djs-group"><g class="djs-element djs-shape" data-element-id="DataObjectReference_189m1ft_label" style="display: block;" transform="matrix(1 0 0 1 665 562)"><g class="djs-visual"><text lineHeight="1.2" class="djs-label" style="font-family: Arial, sans-serif; font-size: 11px; font-weight: normal; fill: black;"><tspan x="0" y="9.899999999999999">Requisitos</tspan></text></g><rect class="djs-hit djs-hit-all" x="0" y="0" width="52" height="14" style="fill: none; stroke-opacity: 0; stroke: white; stroke-width: 15px;"/><rect x="-6" y="-6" width="64" height="26" class="djs-outline" style="fill: none;"/></g></g><g class="djs-group"><g class="djs-element djs-shape" data-element-id="ExclusiveGateway_0nj1sry" style="display: block;" transform="matrix(1 0 0 1 335 465)"><g class="djs-visual"><polygon points="25,0 50,25 25,50 0,25" style="stroke: black; stroke-width: 2px; fill: white; fill-opacity: 0.95;"/><path d="m 16,15 7.42857142857143,9.714285714285715 -7.42857142857143,9.714285714285715 3.428571428571429,0 5.714285714285715,-7.464228571428572 5.714285714285715,7.464228571428572 3.428571428571429,0 -7.42857142857143,-9.714285714285715 7.42857142857143,-9.714285714285715 -3.428571428571429,0 -5.714285714285715,7.464228571428572 -5.714285714285715,-7.464228571428572 -3.428571428571429,0 z" style="fill: black; stroke-width: 1px; stroke: black;"/></g><rect class="djs-hit djs-hit-all" x="0" y="0" width="50" height="50" style="fill: none; stroke-opacity: 0; stroke: white; stroke-width: 15px;"/><rect x="-6" y="-6" width="62" height="62" class="djs-outline" style="fill: none;"/></g></g><g class="djs-group"><g class="djs-element djs-shape" data-element-id="ExclusiveGateway_0nj1sry_label" style="display: block;" transform="matrix(1 0 0 1 273 476)"><g class="djs-visual"><text lineHeight="1.2" class="djs-label" style="font-family: Arial, sans-serif; font-size: 11px; font-weight: normal; fill: black;"><tspan x="0" y="9.899999999999999">Requisitos </tspan><tspan x="6.25" y="23.099999999999998">válidos?</tspan></text></g><rect class="djs-hit djs-hit-all" x="0" y="0" width="52" height="27" style="fill: none; stroke-opacity: 0; stroke: white; stroke-width: 15px;"/><rect x="-6" y="-6" width="64" height="39" class="djs-outline" style="fill: none;"/></g></g><g class="djs-group"><g class="djs-element djs-shape" data-element-id="Task_1vdl1kg" style="display: block;" transform="matrix(1 0 0 1 310 360)"><g class="djs-visual"><rect x="0" y="0" width="100" height="80" rx="10" ry="10" style="stroke: black; stroke-width: 2px; fill: white; fill-opacity: 0.95;"/><text lineHeight="1.2" class="djs-label" style="font-family: Arial, sans-serif; font-size: 12px; font-weight: normal; fill: black;"><tspan x="28.3203125" y="36.4">Analisar </tspan><tspan x="24.3203125" y="50.8">requisitos</tspan></text><path d="m 15,12 c 0.909,-0.845 1.594,-2.049 1.594,-3.385 0,-2.554 -1.805,-4.62199999 -4.357,-4.62199999 -2.55199998,0 -4.28799998,2.06799999 -4.28799998,4.62199999 0,1.348 0.974,2.562 1.89599998,3.405 -0.52899998,0.187 -5.669,2.097 -5.794,4.7560005 v 6.718 h 17 v -6.718 c 0,-2.2980005 -5.5279996,-4.5950005 -6.0509996,-4.7760005 zm -8,6 l 0,5.5 m 11,0 l 0,-5" style="fill: white; stroke-width: 0.5px; stroke: black;"/><path d="m 15,12 m 2.162,1.009 c 0,2.4470005 -2.158,4.4310005 -4.821,4.4310005 -2.66499998,0 -4.822,-1.981 -4.822,-4.4310005 " style="fill: white; stroke-width: 0.5px; stroke: black;"/><path d="m 15,12 m -6.9,-3.80 c 0,0 2.25099998,-2.358 4.27399998,-1.177 2.024,1.181 4.221,1.537 4.124,0.965 -0.098,-0.57 -0.117,-3.79099999 -4.191,-4.13599999 -3.57499998,0.001 -4.20799998,3.36699999 -4.20699998,4.34799999 z" style="fill: black; stroke-width: 0.5px; stroke: black;"/></g><rect class="djs-hit djs-hit-all" x="0" y="0" width="100" height="80" style="fill: none; stroke-opacity: 0; stroke: white; stroke-width: 15px;"/><rect x="-6" y="-6" width="112" height="92" class="djs-outline" style="fill: none;"/></g></g><g class="djs-group"><g class="djs-element djs-shape" data-element-id="SequenceFlow_1q2nbar_label" style="display: block;" transform="matrix(1 0 0 1 370 607)"><g class="djs-visual"><text lineHeight="1.2" class="djs-label" style="font-family: Arial, sans-serif; font-size: 11px; font-weight: normal; fill: black;"><tspan x="0" y="9.899999999999999">Sim</tspan></text></g><rect class="djs-hit djs-hit-all" x="0" y="0" width="19" height="14" style="fill: none; stroke-opacity: 0; stroke: white; stroke-width: 15px;"/><rect x="-6" y="-6" width="31" height="26" class="djs-outline" style="fill: none;"/></g></g><g class="djs-group"><g class="djs-element djs-shape" data-element-id="SequenceFlow_0l4g8po_label" style="display: block;" transform="matrix(1 0 0 1 457 472)"><g class="djs-visual"><text lineHeight="1.2" class="djs-label" style="font-family: Arial, sans-serif; font-size: 11px; font-weight: normal; fill: black;"><tspan x="0" y="9.899999999999999">Não</tspan></text></g><rect class="djs-hit djs-hit-all" x="0" y="0" width="21" height="14" style="fill: none; stroke-opacity: 0; stroke: white; stroke-width: 15px;"/><rect x="-6" y="-6" width="33" height="26" class="djs-outline" style="fill: none;"/></g></g></g></g><g class="djs-group"><g class="djs-element djs-shape" data-element-id="Participant_1t9ihzs" style="display: block;" transform="matrix(1 0 0 1 156 720)"><g class="djs-visual"><rect x="0" y="0" width="600" height="250" rx="0" ry="0" style="stroke: black; stroke-width: 2px; fill: white; fill-opacity: 0.95;"/><polyline points="30,0 30,250 " style="fill: none; stroke: black; stroke-width: 2px;"/><text lineHeight="1.2" class="djs-label" style="font-family: Arial, sans-serif; font-size: 12px; font-weight: normal; fill: black;" transform="matrix(-1.83697e-16 -1 1 -1.83697e-16 0 250)"><tspan x="78.8125" y="18.6">Desenvolvimento</tspan></text></g><rect class="djs-hit djs-hit-click-stroke" x="0" y="0" width="600" height="250" style="fill: none; stroke-opacity: 0; stroke: white; stroke-width: 15px;"/><rect class="djs-hit djs-hit-all" x="0" y="0" width="30" height="250" style="fill: none; stroke-opacity: 0; stroke: white; stroke-width: 15px;"/><rect x="-6" y="-6" width="612" height="262" class="djs-outline" style="fill: none;"/></g><g class="djs-children"><g class="djs-group"><g class="djs-element djs-shape" data-element-id="Task_0zdanjc" style="display: block;" transform="matrix(1 0 0 1 420 770)"><g class="djs-visual"><rect x="0" y="0" width="100" height="80" rx="10" ry="10" style="stroke: black; stroke-width: 2px; fill: white; fill-opacity: 0.95;"/><text lineHeight="1.2" class="djs-label" style="font-family: Arial, sans-serif; font-size: 12px; font-weight: normal; fill: black;"><tspan x="16.1484375" y="36.4">Desenvolver </tspan><tspan x="8.796875" y="50.8">funcionalidades</tspan></text><path d="m 15,12 c 0.909,-0.845 1.594,-2.049 1.594,-3.385 0,-2.554 -1.805,-4.62199999 -4.357,-4.62199999 -2.55199998,0 -4.28799998,2.06799999 -4.28799998,4.62199999 0,1.348 0.974,2.562 1.89599998,3.405 -0.52899998,0.187 -5.669,2.097 -5.794,4.7560005 v 6.718 h 17 v -6.718 c 0,-2.2980005 -5.5279996,-4.5950005 -6.0509996,-4.7760005 zm -8,6 l 0,5.5 m 11,0 l 0,-5" style="fill: white; stroke-width: 0.5px; stroke: black;"/><path d="m 15,12 m 2.162,1.009 c 0,2.4470005 -2.158,4.4310005 -4.821,4.4310005 -2.66499998,0 -4.822,-1.981 -4.822,-4.4310005 " style="fill: white; stroke-width: 0.5px; stroke: black;"/><path d="m 15,12 m -6.9,-3.80 c 0,0 2.25099998,-2.358 4.27399998,-1.177 2.024,1.181 4.221,1.537 4.124,0.965 -0.098,-0.57 -0.117,-3.79099999 -4.191,-4.13599999 -3.57499998,0.001 -4.20799998,3.36699999 -4.20699998,4.34799999 z" style="fill: black; stroke-width: 0.5px; stroke: black;"/></g><rect class="djs-hit djs-hit-all" x="0" y="0" width="100" height="80" style="fill: none; stroke-opacity: 0; stroke: white; stroke-width: 15px;"/><rect x="-6" y="-6" width="112" height="92" class="djs-outline" style="fill: none;"/></g></g><g class="djs-group"><g class="djs-element djs-shape" data-element-id="DataStoreReference_0wbm69m" style="display: block;" transform="matrix(1 0 0 1 255 795)"><g class="djs-visual"><path d="m  0,6.65 l  0,36.885245901639344 c  1.639344262295082,8.196721311475411 47.540983606557376,8.196721311475411  49.18032786885246,0 l  0,-36.885245901639344 c -1.639344262295082,-8.196721311475411 -47.540983606557376,-8.196721311475411 -49.18032786885246,0c  1.639344262295082,8.196721311475411 47.540983606557376,8.196721311475411  49.18032786885246,0 m  -49.18032786885246,5.737704918032787c  1.639344262295082,8.196721311475411 47.540983606557376,8.196721311475411 49.18032786885246,0m  -49.18032786885246,5.737704918032787c  1.639344262295082,8.196721311475411 47.540983606557376,8.196721311475411  49.18032786885246,0" style="fill: white; stroke-width: 2px; stroke: black; fill-opacity: 0.95;"/></g><rect class="djs-hit djs-hit-all" x="0" y="0" width="50" height="50" style="fill: none; stroke-opacity: 0; stroke: white; stroke-width: 15px;"/><rect x="-6" y="-6" width="62" height="62" class="djs-outline" style="fill: none;"/></g></g><g class="djs-group"><g class="djs-element djs-shape" data-element-id="DataStoreReference_0wbm69m_label" style="display: block;" transform="matrix(1 0 0 1 242 852)"><g class="djs-visual"><text lineHeight="1.2" class="djs-label" style="font-family: Arial, sans-serif; font-size: 11px; font-weight: normal; fill: black;"><tspan x="5.9375" y="9.899999999999999">Histórico das </tspan><tspan x="0" y="23.099999999999998">funcionalidades</tspan></text></g><rect class="djs-hit djs-hit-all" x="0" y="0" width="76" height="27" style="fill: none; stroke-opacity: 0; stroke: white; stroke-width: 15px;"/><rect x="-6" y="-6" width="88" height="39" class="djs-outline" style="fill: none;"/></g></g></g></g><g class="djs-group"><g class="djs-element djs-shape" data-element-id="Participant_15k5slq" style="display: block;" transform="matrix(1 0 0 1 156 1350)"><g class="djs-visual"><rect x="0" y="0" width="600" height="250" rx="0" ry="0" style="stroke: black; stroke-width: 2px; fill: white; fill-opacity: 0.95;"/><polyline points="30,0 30,250 " style="fill: none; stroke: black; stroke-width: 2px;"/><text lineHeight="1.2" class="djs-label" style="font-family: Arial, sans-serif; font-size: 12px; font-weight: normal; fill: black;" transform="matrix(-1.83697e-16 -1 1 -1.83697e-16 0 250)"><tspan x="103.8203125" y="18.6">Entrega</tspan></text></g><rect class="djs-hit djs-hit-click-stroke" x="0" y="0" width="600" height="250" style="fill: none; stroke-opacity: 0; stroke: white; stroke-width: 15px;"/><rect class="djs-hit djs-hit-all" x="0" y="0" width="30" height="250" style="fill: none; stroke-opacity: 0; stroke: white; stroke-width: 15px;"/><rect x="-6" y="-6" width="612" height="262" class="djs-outline" style="fill: none;"/></g><g class="djs-children"><g class="djs-group"><g class="djs-element djs-connection" data-element-id="SequenceFlow_1bmxqii" style="display: block;"><g class="djs-visual"><path d="m  520,1450L572,1450 " style="fill: none; stroke-width: 2px; stroke: black; stroke-linejoin: round; marker-end: url('#sequenceflow-end-white-black-42mvgxs0apdzm6g39c7recly7');"/></g><polyline points="520,1450 572,1450 " class="djs-hit djs-hit-stroke" style="fill: none; stroke-opacity: 0; stroke: white; stroke-width: 15px;"/><rect x="514" y="1444" width="64" height="12" class="djs-outline" style="fill: none;"/></g></g><g class="djs-group"><g class="djs-element djs-shape" data-element-id="Task_04orun3" style="display: block;" transform="matrix(1 0 0 1 420 1410)"><g class="djs-visual"><rect x="0" y="0" width="100" height="80" rx="10" ry="10" style="stroke: black; stroke-width: 2px; fill: white; fill-opacity: 0.95;"/><text lineHeight="1.2" class="djs-label" style="font-family: Arial, sans-serif; font-size: 12px; font-weight: normal; fill: black;"><tspan x="5.796875" y="43.599999999999994">Pedido entregue</tspan></text></g><rect class="djs-hit djs-hit-all" x="0" y="0" width="100" height="80" style="fill: none; stroke-opacity: 0; stroke: white; stroke-width: 15px;"/><rect x="-6" y="-6" width="112" height="92" class="djs-outline" style="fill: none;"/></g></g><g class="djs-group"><g class="djs-element djs-shape" data-element-id="EndEvent_1it9779" style="display: block;" transform="matrix(1 0 0 1 572 1432)"><g class="djs-visual"><circle cx="18" cy="18" r="18" style="stroke: black; stroke-width: 4px; fill: white; fill-opacity: 0.95;"/></g><rect class="djs-hit djs-hit-all" x="0" y="0" width="36" height="36" style="fill: none; stroke-opacity: 0; stroke: white; stroke-width: 15px;"/><rect x="-6" y="-6" width="48" height="48" class="djs-outline" style="fill: none;"/></g></g></g></g><g class="djs-group"><g class="djs-element djs-connection" data-element-id="DataOutputAssociation_1l6n7cu" style="display: block;"><g class="djs-visual"><polyline points="410,110 512,110 " style="fill: none; stroke: black; stroke-width: 2px; stroke-dasharray: 0.5, 5; stroke-linecap: round; stroke-linejoin: round; marker-end: url('#association-end-white-black-42mvgxs0apdzm6g39c7recly7');"/></g><polyline points="410,110 512,110 " class="djs-hit djs-hit-stroke" style="fill: none; stroke-opacity: 0; stroke: white; stroke-width: 15px;"/><rect x="404" y="104" width="114" height="12" class="djs-outline" style="fill: none;"/></g></g><g class="djs-group"><g class="djs-element djs-connection" data-element-id="DataInputAssociation_1m3e6a3" style="display: block;"><g class="djs-visual"><polyline points="315,1060 420,1060 " style="fill: none; stroke: black; stroke-width: 2px; stroke-dasharray: 0.5, 5; stroke-linecap: round; stroke-linejoin: round; marker-end: url('#association-end-white-black-42mvgxs0apdzm6g39c7recly7');"/></g><polyline points="315,1060 420,1060 " class="djs-hit djs-hit-stroke" style="fill: none; stroke-opacity: 0; stroke: white; stroke-width: 15px;"/><rect x="309" y="1054" width="117" height="12" class="djs-outline" style="fill: none;"/></g></g><g class="djs-group"><g class="djs-element djs-connection" data-element-id="DataOutputAssociation_0jcymru" style="display: block;"><g class="djs-visual"><polyline points="500,580 530,540 672,540 " style="fill: none; stroke: black; stroke-width: 2px; stroke-dasharray: 0.5, 5; stroke-linecap: round; stroke-linejoin: round; marker-end: url('#association-end-white-black-42mvgxs0apdzm6g39c7recly7');"/></g><polyline points="500,580 530,540 672,540 " class="djs-hit djs-hit-stroke" style="fill: none; stroke-opacity: 0; stroke: white; stroke-width: 15px;"/><rect x="494" y="534" width="184" height="52" class="djs-outline" style="fill: none;"/></g></g><g class="djs-group"><g class="djs-element djs-connection" data-element-id="DataInputAssociation_0ltd3zv" style="display: block;"><g class="djs-visual"><polyline points="305,820 420,820 " style="fill: none; stroke: black; stroke-width: 2px; stroke-dasharray: 0.5, 5; stroke-linecap: round; stroke-linejoin: round; marker-end: url('#association-end-white-black-42mvgxs0apdzm6g39c7recly7');"/></g><polyline points="305,820 420,820 " class="djs-hit djs-hit-stroke" style="fill: none; stroke-opacity: 0; stroke: white; stroke-width: 15px;"/><rect x="299" y="814" width="127" height="12" class="djs-outline" style="fill: none;"/></g></g><g class="djs-group"><g class="djs-element djs-connection" data-element-id="MessageFlow_0welwnx" style="display: block;"><g class="djs-visual"><path d="m  360,150L360,360 " style="fill: none; stroke-width: 1.5px; stroke: black; marker-end: url('#messageflow-end-white-black-42mvgxs0apdzm6g39c7recly7'); marker-start: url('#messageflow-start-white-black-42mvgxs0apdzm6g39c7recly7'); stroke-dasharray: 10, 12; stroke-linecap: round; stroke-linejoin: round;"/></g><polyline points="360,150 360,360 " class="djs-hit djs-hit-stroke" style="fill: none; stroke-opacity: 0; stroke: white; stroke-width: 15px;"/><rect x="354" y="144" width="12" height="222" class="djs-outline" style="fill: none;"/></g></g><g class="djs-group"><g class="djs-element djs-connection" data-element-id="MessageFlow_0kf4v6z" style="display: block;"><g class="djs-visual"><path d="m  470,660L470,770 " style="fill: none; stroke-width: 1.5px; stroke: black; marker-end: url('#messageflow-end-white-black-42mvgxs0apdzm6g39c7recly7'); marker-start: url('#messageflow-start-white-black-42mvgxs0apdzm6g39c7recly7'); stroke-dasharray: 10, 12; stroke-linecap: round; stroke-linejoin: round;"/></g><polyline points="470,660 470,770 " class="djs-hit djs-hit-stroke" style="fill: none; stroke-opacity: 0; stroke: white; stroke-width: 15px;"/><rect x="464" y="654" width="12" height="122" class="djs-outline" style="fill: none;"/></g></g><g class="djs-group"><g class="djs-element djs-connection" data-element-id="MessageFlow_1i5f8sd" style="display: block;"><g class="djs-visual"><path d="m  470,850L470,1010 " style="fill: none; stroke-width: 1.5px; stroke: black; marker-end: url('#messageflow-end-white-black-42mvgxs0apdzm6g39c7recly7'); marker-start: url('#messageflow-start-white-black-42mvgxs0apdzm6g39c7recly7'); stroke-dasharray: 10, 12; stroke-linecap: round; stroke-linejoin: round;"/></g><polyline points="470,850 470,1010 " class="djs-hit djs-hit-stroke" style="fill: none; stroke-opacity: 0; stroke: white; stroke-width: 15px;"/><rect x="464" y="844" width="12" height="172" class="djs-outline" style="fill: none;"/></g></g><g class="djs-group"><g class="djs-element djs-connection" data-element-id="MessageFlow_0aq61pf" style="display: block;"><g class="djs-visual"><path d="m  470,1310L470,1410 " style="fill: none; stroke-width: 1.5px; stroke: black; marker-end: url('#messageflow-end-white-black-42mvgxs0apdzm6g39c7recly7'); marker-start: url('#messageflow-start-white-black-42mvgxs0apdzm6g39c7recly7'); stroke-dasharray: 10, 12; stroke-linecap: round; stroke-linejoin: round;"/></g><polyline points="470,1310 470,1410 " class="djs-hit djs-hit-stroke" style="fill: none; stroke-opacity: 0; stroke: white; stroke-width: 15px;"/><rect x="464" y="1304" width="12" height="112" class="djs-outline" style="fill: none;"/></g></g><g class="djs-group"><g class="djs-element djs-connection" data-element-id="MessageFlow_008ck7h" style="display: block;"><g class="djs-visual"><path d="m  620,990L620,820 L520,820 " style="fill: none; stroke-width: 1.5px; stroke: black; marker-end: url('#messageflow-end-white-black-42mvgxs0apdzm6g39c7recly7'); marker-start: url('#messageflow-start-white-black-42mvgxs0apdzm6g39c7recly7'); stroke-dasharray: 10, 12; stroke-linecap: round; stroke-linejoin: round;"/></g><polyline points="620,990 620,820 520,820 " class="djs-hit djs-hit-stroke" style="fill: none; stroke-opacity: 0; stroke: white; stroke-width: 15px;"/><rect x="514" y="814" width="112" height="182" class="djs-outline" style="fill: none;"/></g></g></svg>